<svg height="512pt" viewBox="-71 0 512 512" width="512pt" xmlns="http://www.w3.org/2000/svg"><g fill-rule="evenodd"><path d="m319.570312 184.796875c0 74.441406-60.34375 134.785156-134.785156 134.785156-74.4375 0-134.785156-60.34375-134.785156-134.785156s60.347656-134.785156 134.785156-134.785156c74.441406 0 134.785156 60.34375 134.785156 134.785156zm0 0" fill="#b0e7f7"/><path d="m50 184.796875c0-74.441406 60.347656-134.785156 134.785156-134.785156 74.441406 0 134.785156 60.34375 134.785156 134.785156s-60.34375 134.785156-134.785156 134.785156c-74.4375 0-134.785156-60.34375-134.785156-134.785156zm134.238281-174.785156c-95.679687.605469-174.238281 80.359375-174.238281 176.167969 0 77.253906 60.480469 170.082031 112.585938 222.589843 25.367187 25.566407 48.75 41.574219 62.199218 41.574219 13.453125 0 36.835938-16.007812 62.203125-41.574219 52.105469-52.507812 112.582031-145.335937 112.582031-222.589843 0-95.808594-78.558593-175.5625-174.238281-176.167969v-.015625l-.546875.007812-.546875-.007812zm0 0" fill="#ff6977"/><path d="m122.585938 408.769531c-25.828126 9.410157-42.578126 24.527344-42.578126 41.574219 0 28.53125 46.910157 51.660156 104.78125 51.660156 57.867188 0 104.777344-23.128906 104.777344-51.660156 0-17.046875-16.75-32.164062-42.578125-41.574219-25.367187 25.566407-48.75 41.574219-62.199219 41.574219-13.453124 0-36.835937-16.007812-62.203124-41.574219zm0 0" fill="#cbe557"/><path d="m161.867188 147.605469c-1.484376-44.519531 13.28125-57.832031 22.917968-57.832031 9.636719 0 24.40625 13.3125 22.921875 57.832031l67.082031 36.070312v29.773438l-69.828124-19.535157-1.191407 38.792969 17 19.855469v27.257812l-35.980469-12.394531-35.984374 12.394531v-27.257812l17-19.855469-1.191407-38.792969-69.824219 19.535157v-29.773438zm0 0" fill="#f8f8f8"/></g><path d="m264.09375 405.230469c11.207031-12.121094 21.984375-25.15625 31.503906-37.917969 47.011719-63.003906 73.976563-129.027344 73.976563-181.136719 0-48.824219-20.304688-97.039062-55.710938-132.277343-34.941406-34.777344-80.46875-53.898438-128.199219-53.898438-.273437 0-.558593 0-.832031.00390625-33.625-.15234425-68.363281 10.05468775-97.753906 28.76171875-4.65625 2.964844-6.03125 9.144531-3.066406 13.804687 2.964843 4.660157 9.148437 6.035157 13.808593 3.066407 25.996094-16.542969 56.597657-25.636719 86.335938-25.636719.226562 0 .453125 0 .675781.003906 42.746094-.246094 83.578125 16.871094 114.921875 48.070313 31.660156 31.511719 49.816406 74.558593 49.816406 118.105469 0 47.886718-25.511718 109.550781-70 169.175781-13.585937 18.207031-26.738281 33.355469-38.78125 45.578125-.625.492187-1.195312 1.054687-1.691406 1.691406-25.511718 25.527344-45.820312 37.714844-54.3125 37.714844-8.488281 0-28.800781-12.1875-54.308594-37.710938-.496093-.640625-1.070312-1.203125-1.691406-1.695312-12.042968-12.222656-25.195312-27.371094-38.78125-45.578125-44.488281-59.625-70.003906-121.289063-70.003906-169.175781 0-30.539063 8.566406-60.539063 24.773438-86.765626 2.902343-4.699218 1.449218-10.859374-3.25-13.765624-4.699219-2.902344-10.859376-1.445313-13.761719 3.25-18.164063 29.386718-27.761719 63.027343-27.761719 97.277343 0 52.109375 26.960938 118.132813 73.972656 181.136719 9.519532 12.761719 20.300782 25.796875 31.503906 37.917969-22.726562 11.402343-35.46875 27.390625-35.46875 45.109375 0 17.808594 12.878907 33.96875 36.265626 45.496094 21.140624 10.425781 49.023437 16.164062 78.515624 16.164062 29.488282 0 57.371094-5.738281 78.511719-16.164062 23.386719-11.527344 36.265625-27.6875 36.265625-45.496094 0-17.71875-12.742187-33.707032-35.472656-45.109375zm-79.308594 86.769531c-55.855468 0-94.777344-21.957031-94.777344-41.660156 0-10.707032 11.445313-21.890625 30.261719-29.910156 23.707031 23.046874 47.695313 39.910156 64.515625 39.910156 16.824219 0 40.808594-16.863282 64.519532-39.910156 18.816406 8.019531 30.261718 19.203124 30.261718 29.910156 0 19.703125-38.925781 41.660156-94.78125 41.660156zm0 0"/><path d="m299.433594 256.382812c4.886718 2.574219 10.9375.703126 13.511718-4.183593 10.878907-20.644531 16.625-43.949219 16.625-67.40625 0-79.832031-64.949218-144.785157-144.785156-144.785157-79.832031 0-144.785156 64.953126-144.785156 144.785157 0 79.835937 64.953125 144.785156 144.785156 144.785156 23.460938 0 46.765625-5.75 67.40625-16.625 4.886719-2.574219 6.757813-8.625 4.183594-13.507813-2.574219-4.886718-8.625-6.761718-13.507812-4.1875-17.777344 9.371094-37.859376 14.320313-58.082032 14.320313-68.804687 0-124.785156-55.976563-124.785156-124.785156 0-68.804688 55.980469-124.785157 124.785156-124.785157 68.808594 0 124.785156 55.980469 124.785156 124.785157 0 20.21875-4.949218 40.300781-14.320312 58.082031-2.574219 4.886719-.699219 10.933594 4.183594 13.507812zm0 0"/><path d="m61.152344 72.480469c2.71875 0 5.425781-1.105469 7.402344-3.273438l.003906-.003906c3.714844-4.085937 3.410156-10.410156-.675782-14.125-4.085937-3.714844-10.414062-3.410156-14.128906.675781-3.714844 4.085938-3.414062 10.410156.671875 14.125 1.917969 1.742188 4.324219 2.601563 6.726563 2.601563zm0 0"/><path d="m280.09375 290.101562c2.558594 0 5.121094-.976562 7.074219-2.929687 3.90625-3.90625 3.90625-10.238281 0-14.144531-3.90625-3.902344-10.238281-3.902344-14.144531 0l-.003907.007812c-3.90625 3.902344-3.902343 10.234375.003907 14.136719 1.953124 1.953125 4.511718 2.929687 7.070312 2.929687zm0 0"/><path d="m272.09375 223.078125c3.011719.84375 6.246094.230469 8.738281-1.660156 2.492188-1.890625 3.957031-4.839844 3.957031-7.96875v-29.773438c0-3.683593-2.023437-7.066406-5.265624-8.808593l-61.714844-33.183594c.019531-31.160156-8.089844-46.328125-15.144532-53.625-5.167968-5.34375-11.515624-8.285156-17.875-8.285156-6.363281 0-12.710937 2.941406-17.878906 8.285156-7.054687 7.296875-15.164062 22.460937-15.144531 53.625l-61.714844 33.183594c-3.242187 1.742187-5.265625 5.125-5.265625 8.808593v29.773438c0 3.128906 1.464844 6.078125 3.957032 7.96875 2.492187 1.890625 5.726562 2.503906 8.738281 1.660156l57.527343-16.09375.683594 22.160156-14.484375 16.914063c-1.550781 1.8125-2.402343 4.121094-2.402343 6.503906v27.257812c0 3.230469 1.5625 6.265626 4.191406 8.140626 2.632812 1.878906 6.007812 2.367187 9.066406 1.3125l32.726562-11.273438 32.726563 11.273438c1.0625.367187 2.160156.546874 3.257813.546874 2.054687 0 4.089843-.632812 5.804687-1.859374 2.632813-1.875 4.195313-4.910157 4.195313-8.140626v-27.257812c0-2.382812-.855469-4.691406-2.40625-6.503906l-14.480469-16.914063.679687-22.160156zm-75.921875 16.132813 14.597656 17.046874v9.539063l-22.726562-7.828125c-1.054688-.363281-2.15625-.542969-3.257813-.542969-1.101562 0-2.203125.179688-3.257812.542969l-22.726563 7.828125v-9.539063l14.597657-17.046874c1.621093-1.890626 2.476562-4.320313 2.398437-6.8125l-1.195313-38.792969c-.09375-3.074219-1.59375-5.933594-4.074218-7.753907-2.476563-1.820312-5.652344-2.394531-8.613282-1.570312l-57.132812 15.984375v-10.613281l61.816406-33.238282c3.347656-1.800781 5.386719-5.34375 5.257813-9.140624-1.035157-31.027344 6.246093-42.023438 9.425781-45.308594 1.675781-1.734375 3.023438-2.191406 3.5-2.191406.480469 0 1.828125.457031 3.503906 2.191406 3.175782 3.285156 10.457032 14.277344 9.421875 45.308594-.125 3.796874 1.910157 7.339843 5.257813 9.140624l61.816406 33.238282v10.613281l-57.128906-15.984375c-2.960938-.828125-6.140625-.25-8.617188 1.570312-2.476562 1.820313-3.980468 4.679688-4.074218 7.753907l-1.191407 38.792969c-.070312 2.492187.785157 4.921874 2.402344 6.8125zm0 0"/></svg>