<svg height="512pt" viewBox="0 -40 512 512" width="512pt" xmlns="http://www.w3.org/2000/svg"><path d="m45 64h-35v358h492v-358zm0 0" fill="#ffc66c"/><path d="m256 408c-10.109375-24.226562-33.785156-40-60.035156-40h-145.964844v-358h145.964844c26.25 0 49.925781 15.773438 60.035156 40zm0 0" fill="#fff"/><path d="m462 72.332031v-62.332031h-145.964844c-26.25 0-49.925781 15.773438-60.035156 40v358c10.109375-24.226562 33.785156-40 60.035156-40h145.964844zm0 0" fill="#edf2fa"/><path d="m101 71c2.628906 0 5.210938-1.070312 7.070312-2.929688 1.859376-1.859374 2.929688-4.441406 2.929688-7.070312s-1.070312-5.210938-2.929688-7.070312c-1.859374-1.859376-4.441406-2.929688-7.070312-2.929688s-5.210938 1.070312-7.070312 2.929688c-1.859376 1.859374-2.929688 4.441406-2.929688 7.070312s1.070312 5.210938 2.929688 7.070312c1.859374 1.859376 4.441406 2.929688 7.070312 2.929688zm0 0"/><path d="m138.5 71h66.5c5.523438 0 10-4.476562 10-10s-4.476562-10-10-10h-66.5c-5.523438 0-10 4.476562-10 10s4.476562 10 10 10zm0 0"/><path d="m101 135h104c5.523438 0 10-4.476562 10-10s-4.476562-10-10-10h-104c-5.523438 0-10 4.476562-10 10s4.476562 10 10 10zm0 0"/><path d="m101 199h104c5.523438 0 10-4.476562 10-10s-4.476562-10-10-10h-104c-5.523438 0-10 4.476562-10 10s4.476562 10 10 10zm0 0"/><path d="m101 263h104c5.523438 0 10-4.476562 10-10s-4.476562-10-10-10h-104c-5.523438 0-10 4.476562-10 10s4.476562 10 10 10zm0 0"/><path d="m215 317c0-5.523438-4.476562-10-10-10h-104c-5.523438 0-10 4.476562-10 10s4.476562 10 10 10h104c5.523438 0 10-4.476562 10-10zm0 0"/><path d="m297.003906 61c0 5.523438 4.476563 10 10 10h104c5.523438 0 10-4.476562 10-10s-4.476562-10-10-10h-104c-5.523437 0-10 4.476562-10 10zm0 0"/><path d="m411.003906 115h-104c-5.523437 0-10 4.476562-10 10s4.476563 10 10 10h104c5.523438 0 10-4.476562 10-10s-4.476562-10-10-10zm0 0"/><path d="m411.003906 179h-104c-5.523437 0-10 4.476562-10 10s4.476563 10 10 10h104c5.523438 0 10-4.476562 10-10s-4.476562-10-10-10zm0 0"/><path d="m411.003906 243h-104c-5.523437 0-10 4.476562-10 10s4.476563 10 10 10h104c5.523438 0 10-4.476562 10-10s-4.476562-10-10-10zm0 0"/><path d="m411.003906 307h-104c-5.523437 0-10 4.476562-10 10s4.476563 10 10 10h104c5.523438 0 10-4.476562 10-10s-4.476562-10-10-10zm0 0"/><path d="m502 54h-30v-44c0-5.523438-4.476562-10-10-10h-145.964844c-24.046875 0-46.085937 11.359375-60.035156 29.996094-13.949219-18.636719-35.988281-29.996094-60.035156-29.996094h-145.964844c-5.523438 0-10 4.476562-10 10v44h-30c-5.523438 0-10 4.476562-10 10v358c0 5.523438 4.476562 10 10 10h345.332031c5.523438 0 10-4.476562 10-10s-4.476562-10-10-10h-90.171875c.011719-.027344.023438-.058594.035156-.089844.011719-.019531.023438-.039062.03125-.058594 8.582032-20.5625 28.527344-33.851562 50.808594-33.851562h145.964844c5.523438 0 10-4.476562 10-10v-294h20v338h-54.914062c-5.523438 0-10 4.476562-10 10s4.476562 10 10 10h64.914062c5.523438 0 10-4.476562 10-10v-358c0-5.523438-4.476562-10-10-10zm-442-34h135.964844c21.636718 0 41.066406 12.527344 50.035156 32.082031v324.980469c-13.46875-12.050781-31.136719-19.0625-50.035156-19.0625h-135.964844zm-40 54h20v294c0 5.523438 4.476562 10 10 10h145.964844c22.28125 0 42.226562 13.289062 50.808594 33.851562.007812.019532.019531.039063.03125.058594.011718.03125.023437.0625.035156.089844h-226.839844zm432 284h-135.964844c-18.898437 0-36.566406 7.011719-50.035156 19.0625v-324.980469c8.96875-19.554687 28.398438-32.082031 50.035156-32.082031h135.964844zm0 0"/><path d="m396.5 412c-2.628906 0-5.210938 1.070312-7.070312 2.929688-1.859376 1.859374-2.929688 4.441406-2.929688 7.070312s1.070312 5.210938 2.929688 7.070312c1.859374 1.859376 4.441406 2.929688 7.070312 2.929688s5.210938-1.070312 7.070312-2.929688c1.859376-1.859374 2.929688-4.441406 2.929688-7.070312s-1.070312-5.210938-2.929688-7.070312c-1.859374-1.859376-4.441406-2.929688-7.070312-2.929688zm0 0"/></svg>