<svg height="512pt" viewBox="0 0 512 512" width="512pt" xmlns="http://www.w3.org/2000/svg"><path d="m353.722656 323.4375-48.429687 78.417969h21.578125v100.144531h53.699218v-100.144531h21.582032zm0 0" fill="#f2685a"/><path d="m256 410.445312c27.613281-29.660156 20.8125-80.957031 20.8125-106.285156 0-97.964844-51.398438-169.867187-133.035156-169.867187-81.632813 0-133.03125 71.902343-133.03125 169.867187 0 25.328125-6.800782 76.625 20.8125 106.285156" fill="#f2484b"/><path d="m89.925781 402.007812h-41.121093c-10.964844 0-19.855469 8.886719-19.855469 19.851563v80.140625h229.65625v-80.140625c0-10.964844-8.886719-19.851563-19.851563-19.851563h-40.964844" fill="#5fd696"/><path d="m210.773438 324.222656c4.6875-8.652344 8.746093-43.078125 9.980468-68.3125-11.671875 7.132813-25.394531 11.246094-40.074218 11.246094-35.578126 0-65.515626-12.117188-74.324219-44.914062-7.230469 18.628906-21.503907 33.746093-39.554688 42.078124 1.003907 26.6875 5.226563 50.839844 10.136719 59.902344 6.40625 11.824219 17.457031 25.972656 31.957031 35.601563 0 42.183593-16.96875 42.183593-16.96875 42.183593s14.921875 32.148438 19.382813 45.089844h65.09375c4.460937-12.941406 19.382812-45.089844 19.382812-45.089844s-16.964844 0-16.964844-42.183593c14.496094-9.628907 25.546876-23.777344 31.953126-35.601563zm0 0" fill="#fdd1a3"/><path d="m330.652344 236.238281c-9.332032-16.367187-17.367188-30.480469-33.269532-41.171875-28.652343-19.261718-45.390624-51.34375-44.777343-85.824218.453125-25.46875 11.25-50.003907 30.40625-69.082032 19.160156-19.082031 43.75-29.789062 69.238281-30.148437.488281-.007813.984375-.011719 1.472656-.011719 55.765625 0 101.132813 45.351562 101.132813 101.097656 0 33.65625-16.691407 65.007813-44.65625 83.875-15.957031 10.765625-24.027344 24.910156-33.378907 41.261719h-46.167968zm0 0" fill="#4dbaf6"/><path d="m292.550781 119.953125c-.058593 0-.117187 0-.179687 0-5.523438-.097656-9.921875-4.65625-9.820313-10.175781.3125-17.648438 7.980469-34.835938 21.597657-48.394532 13.617187-13.566406 30.851562-21.175781 48.523437-21.421874.339844-.007813.695313-.007813 1.046875-.007813 5.523438 0 10 4.476563 10 10s-4.476562 10-10 10c-.253906 0-.511719 0-.761719.003906-12.457031.175781-24.777343 5.714844-34.695312 15.59375-9.914063 9.875-15.496094 22.152344-15.714844 34.578125-.097656 5.464844-4.554687 9.824219-9.996094 9.824219zm0 0"/><path d="m353.722656 189.042969c-3.253906 0-6.300781-1.578125-8.171875-4.234375l-21.28125-30.167969c-3.183593-4.511719-2.101562-10.753906 2.410157-13.9375 4.511718-3.183594 10.753906-2.105469 13.933593 2.410156l13.109375 18.582031 13.105469-18.582031c3.183594-4.511719 9.421875-5.589843 13.9375-2.410156 4.511719 3.183594 5.589844 9.425781 2.40625 13.9375l-21.277344 30.167969c-1.875 2.65625-4.921875 4.234375-8.171875 4.234375zm0 0"/><path d="m330.75 236.238281h45.941406v30.089844h-45.941406zm0 0" fill="#fed271"/><path d="m353.722656 0c-.539062 0-1.085937.00390625-1.617187.0117188-28.097657.3945312-55.140625 12.1367192-76.148438 33.0625002-21.007812 20.921875-32.851562 47.910156-33.351562 75.992187-.671875 37.886719 17.71875 73.136719 49.199219 94.296875 13.324218 8.957031 20.441406 20.808594 28.945312 35.699219v27.265625c0 5.523437 4.476562 10 10 10h45.941406c5.523438 0 10-4.476563 10-10v-27.210937c8.550782-14.929688 15.695313-26.8125 29.101563-35.855469 30.722656-20.726563 49.0625-55.179688 49.0625-92.164063 0-61.257812-49.855469-111.097656-111.132813-111.097656zm12.96875 256.328125h-25.9375v-10.089844h25.9375zm37.914063-69.644531c-16.0625 10.835937-24.96875 24.675781-33.578125 39.554687h-34.578125c-8.554688-14.835937-17.445313-28.6875-33.488281-39.472656-25.820313-17.359375-40.910157-46.273437-40.359376-77.34375.40625-22.859375 10.160157-44.941406 27.46875-62.175781 17.308594-17.242188 39.441407-26.914063 62.328126-27.234375.441406-.007813.882812-.011719 1.324218-.011719 50.25 0 91.132813 40.867188 91.132813 91.101562 0 30.324219-15.046875 58.578126-40.25 75.582032zm0 0"/><path d="m501.625 512c-.652344 0-1.3125-.058594-1.960938-.191406-.632812-.128906-1.261718-.328125-1.871093-.578125-.601563-.25-1.179688-.558594-1.71875-.921875-.550781-.359375-1.0625-.777344-1.519531-1.238282-.472657-.460937-.882813-.96875-1.25-1.519531-.363282-.539062-.671876-1.121093-.921876-1.730469-.25-.601562-.441406-1.230468-.570312-1.871093s-.1875-1.300781-.1875-1.949219.058594-1.308594.1875-1.949219.320312-1.269531.570312-1.878906c.25-.601563.558594-1.183594.921876-1.722656.367187-.550781.777343-1.058594 1.25-1.519531.457031-.460938.96875-.878907 1.519531-1.238282.539062-.363281 1.117187-.671875 1.71875-.921875.609375-.25 1.238281-.449219 1.871093-.570312 1.289063-.257813 2.617188-.257813 3.910157 0 .640625.121093 1.269531.320312 1.867187.570312.601563.25 1.191406.558594 1.730469.921875.550781.359375 1.0625.777344 1.519531 1.238282.460938.460937.882813.96875 1.242188 1.519531.359375.539062.667968 1.121093.917968 1.722656.25.609375.441407 1.238281.570313 1.878906.132813.640625.199219 1.300781.199219 1.949219s-.066406 1.308594-.199219 1.949219c-.128906.640625-.320313 1.269531-.570313 1.871093-.25.609376-.558593 1.191407-.917968 1.730469-.359375.550781-.78125 1.058594-1.242188 1.519531-.457031.460938-.96875.878907-1.519531 1.238282-.539063.363281-1.128906.671875-1.730469.921875-.597656.25-1.226562.449219-1.867187.578125-.640625.132812-1.300781.191406-1.949219.191406zm0 0"/><path d="m458.675781 492h-68.105469v-80.144531h11.578126c3.628906 0 6.96875-1.960938 8.734374-5.128907 1.765626-3.167968 1.679688-7.042968-.226562-10.125l-48.429688-78.417968c-1.820312-2.953125-5.042968-4.746094-8.507812-4.746094-3.46875 0-6.6875 1.792969-8.507812 4.746094l-48.429688 78.417968c-1.90625 3.082032-1.992188 6.957032-.226562 10.125 1.765624 3.167969 5.105468 5.128907 8.734374 5.128907h11.578126v80.144531h-48.265626v-70.140625c0-3.175781-.5-6.234375-1.421874-9.109375 22.292968-28.21875 20.882812-68.738281 19.9375-96.03125-.160157-4.605469-.3125-8.953125-.3125-12.558594 0-51.015625-13.121094-95.1875-37.949219-127.734375-26.015625-34.105469-62.351563-52.132812-105.082031-52.132812-42.726563 0-79.0625 18.027343-105.078126 52.132812-24.824218 32.546875-37.949218 76.71875-37.949218 127.734375 0 3.605469-.152344 7.953125-.3125 12.558594-.945313 27.292969-2.351563 67.8125 19.9375 96.03125-.921875 2.875-1.421875 5.933594-1.421875 9.109375v80.140625c0 5.523438 4.476562 10 10 10h429.722656c5.523437 0 10-4.476562 10-10 .003906-5.523438-4.476563-10-9.996094-10zm-438.253906-174.589844c.167969-4.78125.324219-9.296875.324219-13.25 0-95.621094 49.441406-159.867187 123.03125-159.867187s123.03125 64.246093 123.03125 159.867187c0 3.953125.15625 8.46875.324218 13.25.792969 22.90625 1.957032 56.328125-12.816406 78.984375-4.535156-2.78125-9.867187-4.386719-15.566406-4.386719h-40.964844c-.324218 0-.644531.015626-.964844.046876-2.082031-.960938-7.148437-7.601563-7.90625-27.132813 16.949219-12.777344 26.957032-29.117187 30.652344-35.9375 6.875-12.699219 10.398438-56.703125 11.175782-72.585937.179687-3.703126-1.699219-7.199219-4.886719-9.089844s-7.15625-1.863282-10.316407.070312c-10.46875 6.394532-22.519531 9.777344-34.859374 9.777344-36.226563 0-57.984376-12.621094-64.667969-37.507812-1.121094-4.175782-4.800781-7.160157-9.121094-7.390626-4.316406-.242187-8.296875 2.335938-9.859375 6.367188-6.226562 16.046875-18.773438 29.390625-34.421875 36.613281-3.664063 1.695313-5.953125 5.421875-5.800781 9.457031.808594 21.496094 4.261718 51.230469 11.335937 64.289063 3.691407 6.820313 13.699219 23.160156 30.652344 35.9375-.761719 19.53125-5.824219 26.171875-7.910156 27.132813-.316407-.03125-.636719-.046876-.960938-.046876h-41.121093c-5.699219 0-11.03125 1.605469-15.566407 4.386719-14.769531-22.65625-13.609375-56.078125-12.816406-78.984375zm162.355469 88.988282c-3.804688 8.382812-9.511719 21.191406-13.292969 30.699218h-51.257813c-3.78125-9.507812-9.488281-22.316406-13.289062-30.699218 6.917969-6.199219 13.957031-19.226563 13.957031-46.574219 0-3.347657-1.679687-6.476563-4.46875-8.328125-15.992187-10.621094-25.394531-25.945313-28.695312-32.039063-3.285157-6.066406-7.230469-24.953125-8.632813-49.183593 11.21875-6.320313 20.957032-15.140626 28.410156-25.601563 13.957032 21.105469 39.890626 32.480469 75.171876 32.480469 9.925781 0 19.710937-1.683594 28.957031-4.945313-1.96875 23.09375-5.332031 42.953125-7.65625 47.25-3.300781 6.09375-12.707031 21.414063-28.695313 32.035157-2.789062 1.855468-4.464844 4.980468-4.464844 8.332031 0 27.347656 7.039063 40.375 13.957032 46.574219zm-143.828125 85.601562v-70.140625c0-5.433594 4.421875-9.851563 9.855469-9.851563h36.710937c4.445313 9.75 13.210937 29.269532 16.339844 38.347657 1.390625 4.035156 5.1875 6.742187 9.453125 6.742187h65.09375c4.269531 0 8.066406-2.707031 9.457031-6.742187 3.128906-9.074219 11.894531-28.597657 16.339844-38.347657h36.554687c5.433594 0 9.851563 4.417969 9.851563 9.851563v70.140625zm297.921875 0v-80.144531h8.484375c5.523437 0 10-4.476563 10-10 0-5.523438-4.476563-10-10-10h-22.136719l30.5-49.386719 30.5 49.386719h-3.648438c-5.523437 0-10 4.476562-10 10v90.144531zm0 0"/></svg>