<svg height="512pt" viewBox="-7 0 512 512" width="512pt" xmlns="http://www.w3.org/2000/svg"><path d="m103.597656 355.503906h-59.265625c-18.960937 0-34.332031-15.371094-34.332031-34.335937v-276.835938c0-18.960937 15.371094-34.332031 34.332031-34.332031h408.601563c18.960937 0 34.332031 15.371094 34.332031 34.332031v276.839844c0 18.960937-15.371094 34.332031-34.332031 34.332031h-59.265625" fill="#fdf29e"/><path d="m381.304688 339.5625c8.859374-35.660156 12.386718-73.832031 12.363281-97.464844 0-.324218 0-.644531 0-.960937-.019531-69.367188-11.933594-128.503907-44.15625-164.140625-12.097657-13.378906-32.082031-16.128906-47.515625-6.796875l-.003906.003906-.007813-.007813c-11.761719-17.050781-31.078125-27.339843-51.789063-27.527343-.519531-.007813-1.039062-.007813-1.5625-.007813-97.457031-.015625-145.03125 81.527344-145.03125 198.476563v.960937c-.027343 23.632813 3.503907 61.804688 12.359376 97.464844" fill="#bc7350"/><path d="m290.304688 331.4375-6.847657-29.65625c35.4375-13.914062 60.542969-48.402344 60.542969-88.777344v-51.644531c-10.792969 0-20.894531-5.3125-27.007812-14.207031l-14.238282-20.714844-3.425781 2.488281c-28.980469 21.078125-63.890625 32.433594-99.726563 32.433594h-46.332031v51.644531c0 40.375 25.101563 74.863282 60.539063 88.777344l-6.84375 29.65625h-66.015625c-18.570313 0-33.628907 15.054688-33.628907 33.625v136.9375h282.625v-136.933594c0-18.574218-15.054687-33.628906-33.628906-33.628906zm0 0" fill="#fdd1a3"/><path d="m206.796875 221.789062c-7.195313 0-14.394531-2.214843-20.535156-6.648437-4.476563-3.230469-5.488281-9.480469-2.253907-13.960937 3.234376-4.476563 9.484376-5.484376 13.960938-2.253907 5.28125 3.8125 12.375 3.8125 17.65625 0 4.480469-3.230469 10.730469-2.222656 13.960938 2.253907 3.230468 4.480468 2.222656 10.730468-2.253907 13.960937-6.144531 4.433594-13.339843 6.648437-20.535156 6.648437zm0 0"/><path d="m290.46875 221.789062c-7.195312 0-14.390625-2.214843-20.53125-6.648437-4.480469-3.230469-5.488281-9.480469-2.257812-13.960937 3.234374-4.476563 9.484374-5.484376 13.960937-2.253907 5.28125 3.8125 12.375 3.8125 17.65625 0 4.480469-3.230469 10.730469-2.222656 13.960937 2.253907 3.234376 4.480468 2.222657 10.730468-2.253906 13.960937-6.140625 4.433594-13.339844 6.648437-20.535156 6.648437zm0 0"/><path d="m247.972656 275.804688c-7.195312 0-14.394531-2.21875-20.535156-6.652344-4.476562-3.230469-5.488281-9.480469-2.253906-13.960938 3.230468-4.476562 9.480468-5.488281 13.960937-2.253906 5.28125 3.808594 12.375 3.808594 17.65625 0 4.476563-3.234375 10.726563-2.222656 13.960938 2.253906 3.230469 4.480469 2.222656 10.730469-2.257813 13.960938-6.140625 4.433594-13.335937 6.652344-20.53125 6.652344zm0 0"/><path d="m248.632812 424.335938c-21.789062-15.609376-47.917968-24.007813-74.722656-24.007813h-13.667968v101.671875h176.777343v-101.671875h-13.664062c-26.804688 0-52.933594 8.398437-74.722657 24.007813zm0 0" fill="#f48b93"/><path d="m452.933594 0h-408.601563c-24.445312 0-44.332031 19.886719-44.332031 44.332031v276.835938c0 24.445312 19.886719 44.335937 44.332031 44.335937h52.988281v136.496094c0 5.523438 4.476563 10 10 10h282.625c5.523438 0 10-4.476562 10-10v-136.496094h52.988282c24.445312 0 44.332031-19.890625 44.332031-44.335937v-276.835938c0-24.445312-19.886719-44.332031-44.332031-44.332031zm-339.335938 242.097656.003906-.960937c0-57.371094 11.828126-104.894531 34.207032-137.433594 23.300781-33.871094 57.207031-51.042969 100.800781-51.042969.5-.019531.996094.003906 1.492187.007813 17.398438.160156 33.699219 8.8125 43.617188 23.152343 2.984375 4.40625 8.925781 5.695313 13.476562 2.921876 11.40625-6.878907 26.078126-4.792969 34.898438 4.960937 27.566406 30.488281 41.554688 83.457031 41.570312 157.453125v.953125c.023438 19.011719-2.472656 51.007813-9.339843 83.222656-5.492188-2.5-11.589844-3.894531-18.007813-3.894531h-58.058594l-3.199218-13.847656c16.074218-7.886719 29.847656-19.710938 40.171875-34.566406 12.277343-17.671876 18.765625-38.425782 18.765625-60.015626v-51.644531c0-5.523437-4.476563-10-10-10-7.5 0-14.515625-3.691406-18.765625-9.875l-14.238281-20.714843c-1.527344-2.222657-3.890626-3.734376-6.550782-4.191407s-5.390625.183594-7.574218 1.769531l-3.421876 2.492188c-27.449218 19.964844-59.898437 30.519531-93.84375 30.519531h-46.335937c-5.523437 0-10 4.476563-10 10v51.644531c0 21.589844 6.492187 42.34375 18.769531 60.015626 10.324219 14.855468 24.097656 26.679687 40.167969 34.566406l-3.195313 13.847656h-58.058593c-6.417969 0-12.515625 1.394531-18.007813 3.894531-6.867187-32.21875-9.363281-64.214843-9.34375-83.234375zm213.421875 148.230469h-3.664062c-26.710938 0-52.398438 7.558594-74.722657 21.921875-22.324218-14.363281-48.011718-21.921875-74.722656-21.921875h-3.667968v-48.890625h36.71875c4.65625 0 8.695312-3.214844 9.746093-7.753906l6.84375-29.65625c1.117188-4.828125-1.476562-9.746094-6.085937-11.554688-32.925782-12.925781-54.199219-44.121094-54.199219-79.46875v-41.644531h36.335937c36.183594 0 70.859376-10.65625 100.671876-30.878906l8.476562 12.335937c6.050781 8.804688 15.089844 14.917969 25.246094 17.359375v42.828125c0 35.347656-21.269532 66.542969-54.195313 79.46875-4.613281 1.808594-7.203125 6.726563-6.085937 11.554688l6.84375 29.65625c1.046875 4.539062 5.085937 7.753906 9.746094 7.753906h36.714843zm-209.699219-25.261719c0-13.03125 10.601563-23.628906 23.628907-23.628906h9.292969v150.5625h-32.921876zm52.925782 126.933594v-81.671875h3.664062c24.863282 0 48.6875 7.65625 68.898438 22.136719 3.480468 2.496094 8.167968 2.496094 11.648437 0 20.210938-14.480469 44.035157-22.136719 68.898438-22.136719h3.664062v81.671875zm209.699218 0h-32.925781v-150.5625h9.296875c13.027344 0 23.628906 10.597656 23.628906 23.628906zm97.320313-170.832031c0 13.417969-10.914063 24.335937-24.332031 24.335937h-57.625c-1.066406-2.117187-2.300782-4.136718-3.683594-6.039062 8.910156-37.003906 12.066406-75.402344 12.039062-97.367188v-.964844c-.007812-37.28125-3.472656-69.96875-10.300781-97.152343-7.703125-30.679688-19.960937-55.476563-36.433593-73.695313-13.210938-14.605468-33.960938-19.285156-52.011719-12.5625-13.738281-15.636718-33.597657-24.863281-54.632813-25.058594-.558594-.003906-1.121094.007813-1.675781-.007812-49.855469 0-90.410156 20.648438-117.28125 59.710938-24.683594 35.886718-37.726563 87.328124-37.726563 148.769531l-.003906.949219c-.023437 21.976562 3.132813 60.371093 12.042969 97.375-1.382813 1.902343-2.617187 3.921874-3.683594 6.039062h-57.625c-13.417969 0-24.332031-10.914062-24.332031-24.332031v-276.835938c0-13.417969 10.914062-24.332031 24.332031-24.332031h408.601563c13.417968 0 24.332031 10.914062 24.332031 24.332031zm0 0"/><path d="m431 285.359375c-1.25 0-2.519531-.234375-3.746094-.730469-5.121094-2.070312-7.59375-7.902344-5.523437-13.023437 8.988281-22.214844 13.542969-45.746094 13.542969-69.929688 0-56.523437-25.207032-109.382812-69.152344-145.03125-4.292969-3.480469-4.945313-9.777343-1.46875-14.066406 3.480468-4.289063 9.777344-4.945313 14.066406-1.464844 48.648438 39.460938 76.554688 97.984375 76.554688 160.5625 0 26.765625-5.046876 52.816407-15 77.429688-1.574219 3.890625-5.320313 6.253906-9.273438 6.253906zm0 0"/><path d="m67.460938 288.242188c-3.894532 0-7.597657-2.289063-9.214844-6.101563-10.785156-25.492187-16.253906-52.5625-16.253906-80.464844 0-48.519531 17.15625-95.675781 48.304687-132.78125 3.550781-4.230469 9.859375-4.78125 14.085937-1.230469 4.230469 3.554688 4.78125 9.859376 1.230469 14.089844-28.128906 33.507813-43.621093 76.097656-43.621093 119.921875 0 25.210938 4.9375 49.660157 14.675781 72.671875 2.152343 5.085938-.226563 10.953125-5.3125 13.105469-1.273438.535156-2.59375.789063-3.894531.789063zm0 0"/><path d="m124.84375 58.878906c-.652344 0-1.3125-.070312-1.949219-.199218-.640625-.128907-1.273437-.320313-1.871093-.570313-.601563-.25-1.179688-.558594-1.730469-.917969-.539063-.363281-1.058594-.78125-1.519531-1.242187-.460938-.460938-.878907-.96875-1.242188-1.519531-.359375-.539063-.667969-1.121094-.917969-1.730469-.25-.597657-.441406-1.230469-.570312-1.871094-.128907-.636719-.199219-1.296875-.199219-1.949219 0-.648437.070312-1.308594.199219-1.949218.128906-.640626.320312-1.269532.570312-1.878907.25-.601562.558594-1.179687.917969-1.722656.363281-.546875.78125-1.058594 1.242188-1.519531.460937-.457032.980468-.878906 1.519531-1.238282.550781-.359374 1.128906-.671874 1.730469-.921874.597656-.25 1.230468-.449219 1.871093-.570313 3.25-.65625 6.707031.410156 9.019531 2.730469.46875.460937.878907.972656 1.25 1.519531.359376.539063.667969 1.121094.917969 1.722656.25.609375.441407 1.238281.570313 1.878907.128906.640624.199218 1.300781.199218 1.949218 0 .652344-.070312 1.3125-.199218 1.949219-.128906.640625-.320313 1.273437-.570313 1.871094-.25.609375-.558593 1.191406-.917969 1.730469-.371093.550781-.78125 1.058593-1.25 1.519531-1.851562 1.859375-4.429687 2.929687-7.070312 2.929687zm0 0"/></svg>