<svg height="511pt" viewBox="0 0 511 511.99967" width="511pt" xmlns="http://www.w3.org/2000/svg"><path d="m453.128906 59.289062c-65.835937-65.835937-172.570312-65.835937-238.40625 0-65.832031 65.832032-65.832031 172.570313 0 238.402344 65.835938 65.832032 172.570313 65.832032 238.40625 0 65.832032-65.832031 65.832032-172.570312 0-238.402344zm0 0" fill="#8291a8"/><g fill="#e5ecec"><path d="m269.257812 286.222656-43.0625-43.066406 49.359376-35.199219 28.902343 28.90625zm0 0"/><path d="m380.09375 397.066406-50.039062-50.042968.003906-.007813c26.582031.617187 53.300781-5.035156 77.722656-16.941406l11.3125 11.3125zm0 0"/><path d="m165.117188 182.085938-50.042969-50.042969 55.675781-39 11.304688 11.308593.347656.160157c-11.84375 24.261719-17.519532 50.78125-17.011719 77.199219zm0 0"/><path d="m262.714844 75.109375-30.828125-30.824219c-5.96875 4.550782-11.703125 9.550782-17.160157 15.007813-5.449218 5.449219-10.449218 11.183593-15 17.152343l236.25 236.25c5.96875-4.550781 11.703126-9.550781 17.152344-15 5.460938-5.457031 10.457032-11.191406 15.007813-17.160156l-148.277344-148.277344zm0 0"/></g><path d="m465.148438 299.601562c3.914062-4.238281 7.925781-8.636718 11.210937-13.390624 52.960937-69.925782 47.585937-170.257813-16.15625-233.996094-63.777344-63.78125-164.1875-69.125-234.125-16.0625-4.941406 3.539062-9.546875 7.660156-13.992187 11.792968-4.457032 4.144532-8.65625 8.542969-12.683594 13.101563-7.394532 8.445313-13.914063 17.476563-19.523438 26.984375l-2.054687-2.058594c-3.433594-3.433594-8.835938-3.902344-12.8125-1.117187l-55.675781 38.996093c-2.421876 1.695313-3.96875 4.378907-4.226563 7.324219-.257813 2.945313.800781 5.851563 2.890625 7.941407l14.011719 14.011718-116.339844 65.523438c-4.8125 2.710937-6.515625 8.8125-3.804687 13.625 1.835937 3.261718 5.230468 5.09375 8.722656 5.09375 1.660156 0 3.347656-.414063 4.898437-1.289063l121.210938-68.269531 18.839843 18.839844c1.84375 41.308594 17.683594 80.082031 45.242188 110.839844l-197.351562 197.351562c-3.90625 3.90625-3.90625 10.238281 0 14.144531 1.953124 1.953125 4.511718 2.929688 7.070312 2.929688 2.5625 0 5.121094-.976563 7.074219-2.929688l197.351562-197.351562c30.757813 27.554687 69.527344 43.394531 110.839844 45.242187l17.519531 17.523438-69.097656 122.6875c-2.710938 4.8125-1.007812 10.910156 3.804688 13.621094 1.550781.875 3.238281 1.289062 4.898437 1.289062 3.496094 0 6.886719-1.835938 8.722656-5.097656l66.359375-117.816406 15.050782 15.050781c1.882812 1.882812 4.433593 2.929687 7.070312 2.929687.292969 0 .582031-.011718.871094-.039062 2.949218-.257813 5.628906-1.804688 7.324218-4.226563l38.996094-55.675781c2.785156-3.976562 2.316406-9.375-1.117187-12.808594l-1.78125-1.78125c6.078125-3.582031 11.960937-7.539062 17.617187-11.859375 8.335938-6.273437 16.066406-13.414062 23.144532-21.074219zm-19.089844-233.242187c53.894531 53.890625 60.804687 137.242187 20.746094 198.695313l-139.871094-139.871094c-3.90625-3.902344-10.238282-3.902344-14.144532 0-3.90625 3.90625-3.90625 10.242187 0 14.148437l141.914063 141.914063c-5.027344 5.894531-10.476563 11.417968-16.292969 16.53125-.347656.304687-1.789062 1.417968-1.789062 1.417968-.085938-.023437-.214844-.214843-.28125-.28125-1.066406-1.066406-222.523438-222.472656-222.878906-222.875-.085938-.101562-.253907-.253906-.257813-.261718l-.050781-.039063s.507812-.605469.503906-.597656c.671875-.78125 1.351562-1.554687 2.039062-2.324219 4.8125-5.363281 9.964844-10.453125 15.472657-15.105468l24.472656 24.472656c3.90625 3.90625 10.238281 3.90625 14.144531 0s3.90625-10.238282 0-14.144532l-22.425781-22.425781c26.203125-17.082031 56.382813-25.625 86.570313-25.625 40.601562-.003906 81.21875 15.460938 112.128906 46.371094zm-276.445313 39.691406.6875.683594c-7.265625 16.558594-11.96875 34.210937-13.917969 52.472656l-25.808593-25.808593zm72.007813 138.390625 32.847656-23.425781 16.929688 16.933594-23.421876 32.84375zm20.566406 48.851563c1.882812 1.882812 4.429688 2.929687 7.070312 2.929687.277344 0 .550782-.011718.828126-.035156 2.933593-.242188 5.609374-1.761719 7.316406-4.160156l35.199218-49.355469c2.835938-3.980469 2.382813-9.425781-1.070312-12.878906l-28.90625-28.90625c-3.453125-3.457031-8.902344-3.910157-12.878906-1.070313l-49.355469 35.199219c-2.398437 1.707031-3.917969 4.382813-4.164063 7.3125-.242187 2.933594.816407 5.820313 2.898438 7.902344l14.457031 14.457031-18.628906 18.632812c-24.917969-28.203124-38.835937-63.863281-39.5625-101.710937-.015625-1.613281-.035156-3.222656-.015625-4.835937.253906-23.488282 5.757812-46.855469 16.019531-67.875.085938-.179688.15625-.367188.234375-.550782 2.792969-5.652344 5.933594-11.144531 9.40625-16.453125l219.488282 219.488281c-5.3125 3.476563-10.808594 6.617188-16.46875 9.414063-.21875.085937-.4375.179687-.652344.285156-19.710938 9.609375-41.472656 15.027344-63.484375 15.859375-3.246094.121094-6.492188.117188-9.738281.074219-37.613282-.867187-73.03125-14.773437-101.078126-39.550781l18.628907-18.632813zm143.898438 49.230469-27.34375 39.042968-25.535157-25.53125c18.261719-1.949218 35.917969-6.652344 52.472657-13.917968zm0 0"/><path d="m282.320312 107.777344c1.574219 3.847656 5.570313 6.382812 9.730469 6.167968 4.121094-.21875 7.757813-3.007812 9.019531-6.933593 1.28125-3.96875-.105468-8.453125-3.421874-10.992188-3.367188-2.578125-8.109376-2.730469-11.640626-.382812-3.917968 2.605469-5.5 7.792969-3.6875 12.140625zm0 0"/></svg>